# xmcd
#
# Track frame offsets: 
#        150
#        15722
#        34902
#        50900
#        67570
#        80447
#        99455
#        111600
#        128270
#        142227
#        155650
#        169515
#
# Disc length: 2455 seconds
#
# Revision: 3
# Processed by: cddbd v1.5.2PL0 Copyright (c) Steve Scherf et al.
# Submitted via: ExactAudioCopy v0.99pb4
#
DISCID=9e09950c
DTITLE=Carole King - Jazzman
DYEAR=1900
DGENRE=Pop
TTITLE0=Nightingale
TTITLE1=Change In Mind, Change In Heart
TTITLE2=Jazzman
TTITLE3=You Go Your Way, I'll Go Mine
TTITLE4=You're Something New
TTITLE5=We Are All In This Together
TTITLE6=Wrap Around Joy
TTITLE7=You Gentle Me
TTITLE8=My Lovin' Eyes
TTITLE9=Sweet Adonis
TTITLE10=A Night This Side Of Dying
TTITLE11=The Best Is Yet To Come
EXTD=
EXTT0=
EXTT1=
EXTT2=
EXTT3=
EXTT4=
EXTT5=
EXTT6=
EXTT7=
EXTT8=
EXTT9=
EXTT10=
EXTT11=
PLAYORDER=
